<svg width="66" height="17" viewBox="0 0 66 17" fill="none" xmlns="http://www.w3.org/2000/svg">
<g id="Frame" clip-path="url(#clip0_345_575)">
<g id="Group">
<path id="id-D6z1nYkh4" d="M11.3968 12.8367C11.3968 12.947 11.4058 13.0848 11.4239 13.2502C11.4419 13.4156 11.46 13.5902 11.478 13.774C11.4961 13.9578 11.5141 14.1278 11.5322 14.284C11.5502 14.4402 11.5592 14.5551 11.5592 14.6286C11.5592 15.4188 11.2073 15.8139 10.5034 15.8139C9.92593 15.8139 9.51985 15.621 9.28524 15.235L9.04159 13.2502V13.0297C9.04159 12.9011 9.03257 12.7357 9.01452 12.5335C8.99647 12.3314 8.97392 12.1292 8.94684 11.927C8.91977 11.7249 8.89721 11.5411 8.87917 11.3757C8.86112 11.2103 8.85209 11.0908 8.85209 11.0173C8.87014 10.8887 8.88368 10.7646 8.8927 10.6452C8.90172 10.5257 8.90624 10.4017 8.90624 10.273C8.90624 10.0709 8.89721 9.88251 8.87917 9.70792C8.86112 9.53333 8.83405 9.35415 8.79795 9.17037C8.65357 9.20713 8.34676 9.25766 7.87752 9.32199C7.40829 9.38631 6.83077 9.41847 6.14496 9.41847C5.83815 9.41847 5.5539 9.40928 5.29221 9.3909C5.03052 9.37253 4.79139 9.34496 4.57482 9.3082C4.35825 9.19794 3.66341 9.1428 2.49032 9.1428C2.45423 9.56549 2.42716 9.95602 2.40911 10.3144C2.39106 10.6728 2.38204 10.999 2.38204 11.293C2.38204 11.8995 2.42716 12.3589 2.51739 12.6713C2.58958 13.5719 2.64824 14.2518 2.69336 14.7113C2.73848 15.1707 2.77006 15.5015 2.78811 15.7037C2.80615 15.9058 2.81518 16.0253 2.81518 16.062C2.81518 16.0988 2.81518 16.1447 2.81518 16.1999C2.81518 16.7328 2.45423 16.9993 1.73232 16.9993C1.47966 16.9993 1.25857 16.9488 1.06907 16.8477C0.879575 16.7466 0.721659 16.572 0.595326 16.3239C0.468993 16.0758 0.369731 15.7312 0.297541 15.2902C0.225351 14.8491 0.180232 14.2978 0.162184 13.6362C0.0538984 13.1767 -0.000244141 12.5703 -0.000244141 11.8168C-0.000244141 11.5779 0.00426774 11.3573 0.0132915 11.1552C0.0223153 10.953 0.0268272 10.7784 0.0268272 10.6314C0.0268272 10.4844 0.0223153 10.3603 0.0132915 10.2593C0.00426774 10.1582 -0.000244141 10.0709 -0.000244141 9.99737C-0.000244141 10.0341 -0.000244141 9.91467 -0.000244141 9.639C-0.000244141 9.36334 0.0132915 9.03713 0.0403629 8.66039C0.0674343 8.28364 0.0990174 7.9069 0.135113 7.53015C0.171208 7.15341 0.225351 6.87314 0.297541 6.68937C0.297541 6.65261 0.293029 6.61126 0.284005 6.56532C0.274982 6.51937 0.27047 6.46883 0.27047 6.4137C0.27047 6.00939 0.288517 5.65102 0.324612 5.3386C0.360707 5.02618 0.401314 4.72294 0.446433 4.4289C0.491552 4.13485 0.545695 3.82702 0.608862 3.50541C0.672028 3.1838 0.730683 2.80246 0.784826 2.36139C0.875063 1.73655 0.983349 1.2771 1.10968 0.983059C1.23602 0.689014 1.52478 0.541992 1.97597 0.541992C2.21058 0.541992 2.45874 0.624691 2.72043 0.790092C2.98212 0.955492 3.11296 1.1944 3.11296 1.50683C3.11296 1.67223 3.10845 1.88816 3.09943 2.15464C3.0904 2.42112 3.06784 2.76111 3.03175 3.17461C2.99565 3.58811 2.95054 4.08891 2.89639 4.677C2.84225 5.26509 2.77006 5.96344 2.67982 6.77207C2.91444 6.86396 3.2393 6.9099 3.65439 6.9099C3.79877 6.9099 3.92059 6.90531 4.01985 6.89612C4.11912 6.88693 4.21387 6.88233 4.3041 6.88233C4.55677 6.88233 4.73273 6.90531 4.832 6.95125C4.93126 6.99719 5.0982 7.02017 5.33282 7.02017C5.8201 7.02017 6.19008 7.00638 6.44274 6.97882C6.69541 6.95125 6.82174 6.94666 6.82174 6.96503H7.22781C7.58876 6.96503 7.92716 6.95125 8.24299 6.92368C8.55882 6.89612 8.71674 6.78126 8.71674 6.5791C8.71674 6.0829 8.63552 5.40292 8.47309 4.53916V4.04296C8.47309 3.78567 8.46407 3.53298 8.44602 3.28488C8.42798 3.03678 8.39188 2.81165 8.33774 2.60949C8.33774 1.87438 8.78893 1.50683 9.69131 1.50683C10.1064 1.50683 10.3997 1.72276 10.5711 2.15464C10.7426 2.58652 10.8599 3.09651 10.9231 3.6846C10.9862 4.27269 11.0223 4.87456 11.0313 5.49021C11.0404 6.10587 11.099 6.59748 11.2073 6.96503C11.2073 7.44286 11.2208 8.00797 11.2479 8.66039C11.275 9.3128 11.3246 10.0709 11.3968 10.9346C11.3788 11.0265 11.3697 11.1368 11.3697 11.2654C11.3697 11.3941 11.3697 11.5319 11.3697 11.6789C11.3697 11.8443 11.3697 12.0235 11.3697 12.2165C11.3697 12.4095 11.3788 12.6162 11.3968 12.8367ZM30.7528 8.34337L30.6987 10.273C30.4641 11.2287 29.7963 12.3314 28.6954 13.581C28.551 13.6362 28.366 13.7464 28.1404 13.9118C27.9149 14.0772 27.6261 14.2472 27.2742 14.4218C26.9222 14.5964 26.4936 14.748 25.9883 14.8767C25.4829 15.0053 24.8874 15.0696 24.2016 15.0696C22.8299 15.0696 21.6839 14.6975 20.7635 13.9532C19.8431 13.2089 19.1302 12.0373 18.6249 10.4384C18.6068 10.3098 18.5978 10.1811 18.5978 10.0525C18.5978 9.92386 18.5978 9.78603 18.5978 9.639C18.5978 8.49958 18.7151 7.49339 18.9497 6.62045C19.1843 5.7475 19.5002 4.98942 19.8972 4.3462C20.2943 3.70297 20.75 3.16083 21.2643 2.71976C21.7787 2.27869 22.3156 1.92033 22.8751 1.64466C23.7955 1.38737 24.6979 1.25873 25.5822 1.25873C26.2139 1.25873 26.8365 1.42413 27.4501 1.75493C28.0637 2.08573 28.6097 2.55436 29.0879 3.16083C29.5662 3.7673 29.9542 4.507 30.252 5.37995C30.5498 6.25289 30.7167 7.2407 30.7528 8.34337ZM28.2081 10.1903C28.3345 9.43685 28.3976 8.84876 28.3976 8.42607C28.3976 7.72771 28.2984 7.08449 28.0998 6.4964C27.9013 5.90831 27.6667 5.39833 27.396 4.96645C27.1253 4.53457 26.841 4.19458 26.5432 3.94648C26.2455 3.69838 25.9973 3.57433 25.7988 3.57433C24.8423 3.57433 24.0617 3.79027 23.4571 4.22215C22.8525 4.65402 22.3788 5.1732 22.0359 5.77967C21.6929 6.38613 21.4583 7.02017 21.332 7.68177C21.2057 8.34337 21.1425 8.90389 21.1425 9.36334C21.1425 9.78603 21.2102 10.1949 21.3455 10.5901C21.4809 10.9852 21.6794 11.3344 21.9411 11.6376C22.2028 11.9408 22.5141 12.1843 22.8751 12.3681C23.236 12.5519 23.6511 12.6438 24.1203 12.6438C25.2212 12.6438 26.0875 12.437 26.7192 12.0235C27.3509 11.61 27.8472 10.999 28.2081 10.1903ZM48.1868 11.9546C48.1327 12.1751 48.0018 12.4416 47.7943 12.754C47.5867 13.0665 47.3295 13.3835 47.0227 13.7051C46.7159 14.0267 46.3865 14.3162 46.0346 14.5734C45.6827 14.8307 45.3443 15.0145 45.0194 15.1248C44.081 15.5475 43.0252 15.7588 41.8521 15.7588C41.4731 15.7588 41.1437 15.7496 40.864 15.7312C40.5843 15.7129 40.309 15.6577 40.0383 15.5658C39.7676 15.474 39.4969 15.3269 39.2262 15.1248C38.9555 14.9226 38.6486 14.6286 38.3057 14.2426C37.9267 13.8383 37.629 13.4386 37.4124 13.0435C37.1958 12.6484 37.0334 12.267 36.9251 11.8995C36.8168 11.5319 36.7446 11.1781 36.7085 10.8382C36.6724 10.4982 36.6544 10.1903 36.6544 9.91467C36.6544 9.3082 36.7266 8.59147 36.871 7.76447C37.0153 6.93747 37.4034 5.92669 38.035 4.73213C38.2696 4.29106 38.4501 3.94188 38.5765 3.6846C38.7028 3.42731 38.775 3.25272 38.793 3.16083L40.4715 2.11329C41.049 1.76412 41.5994 1.48385 42.1228 1.27251C42.6462 1.06116 43.2237 0.955492 43.8554 0.955492C44.0359 0.955492 44.3066 0.955492 44.6675 0.955492C45.0285 0.955492 45.3849 0.996842 45.7368 1.07954C46.0888 1.16224 46.4001 1.30926 46.6708 1.52061C46.9415 1.73195 47.0769 2.03978 47.0769 2.44409C47.0769 3.12407 46.6798 3.5192 45.8857 3.62946C45.9038 3.62946 45.8496 3.62027 45.7233 3.6019C45.597 3.58352 45.4255 3.56514 45.2089 3.54676C44.9924 3.52838 44.7487 3.51001 44.478 3.49163C44.2073 3.47325 43.9366 3.46406 43.6659 3.46406C43.1966 3.46406 42.7229 3.5973 42.2446 3.86378C41.7664 4.13026 41.1843 4.58511 40.4985 5.22833C40.1376 6.0002 39.8714 6.60207 39.6999 7.03395C39.5285 7.46583 39.4427 7.75528 39.4427 7.9023C39.2442 8.26986 39.145 8.812 39.145 9.52874C39.145 10.8519 39.3796 11.803 39.8488 12.3819C40.3181 12.9608 40.9587 13.2502 41.7709 13.2502C42.2943 13.2502 43.1064 13.1032 44.2073 12.8092C44.8751 12.4049 45.4526 11.7616 45.9399 10.8795C46.2467 10.5671 46.5625 10.4109 46.8874 10.4109C47.2303 10.4109 47.5371 10.5487 47.8078 10.8244C48.0785 11.1 48.2139 11.4125 48.2139 11.7616C48.2139 11.7984 48.2094 11.8306 48.2003 11.8581C48.1913 11.8857 48.1868 11.9179 48.1868 11.9546ZM65.9456 15.9242C65.8734 16.2734 65.5395 16.448 64.944 16.448C64.4567 16.448 64.1048 16.3377 63.8882 16.1172C63.798 15.8048 63.6716 15.4234 63.5092 14.9732C63.3468 14.5229 63.1573 14.0037 62.9407 13.4156C62.8324 12.6989 62.7286 12.1935 62.6294 11.8995C62.5301 11.6054 62.4083 11.3849 62.2639 11.2379C61.9932 11.2562 61.6052 11.2884 61.0998 11.3344C60.5945 11.3803 60.0621 11.4354 59.5026 11.4998C58.9432 11.5641 58.4198 11.6468 57.9325 11.7479C57.4452 11.8489 57.0933 11.9546 56.8767 12.0649C56.7865 12.5243 56.6782 13.0297 56.5518 13.581C56.4255 14.1324 56.2721 14.7205 56.0916 15.3453C56.0375 15.5291 55.9112 15.6623 55.7126 15.745C55.5141 15.8277 55.2705 15.8691 54.9817 15.8691C54.6929 15.8691 54.4448 15.8185 54.2372 15.7175C54.0297 15.6164 53.9259 15.4648 53.9259 15.2626C53.9259 14.8951 54.1425 13.8016 54.5756 11.9822C54.5576 11.9087 54.5486 11.7984 54.5486 11.6514C54.5486 11.4125 54.5802 11.1138 54.6433 10.7555C54.7065 10.3971 54.7742 10.0525 54.8464 9.7217C54.9185 9.3909 54.9862 9.10605 55.0494 8.86714C55.1126 8.62822 55.1441 8.49958 55.1441 8.4812L56.0104 6.02777C56.0465 5.78885 56.1413 5.46724 56.2947 5.06293C56.4481 4.65862 56.615 4.24512 56.7955 3.82243C56.976 3.39974 57.1474 3.00002 57.3098 2.62328C57.4723 2.24653 57.5806 1.95708 57.6347 1.75493C57.7971 1.14846 58.2303 0.845225 58.9341 0.845225C59.5117 0.845225 59.8816 1.06576 60.0441 1.50683C60.0441 1.50683 60.0982 1.6079 60.2065 1.81006C60.3148 2.01222 60.4591 2.2695 60.6396 2.58193C60.8201 2.89435 61.0141 3.23893 61.2217 3.61568C61.4292 3.99242 61.6232 4.35079 61.8037 4.69078C61.9842 5.03077 62.1376 5.334 62.2639 5.60048C62.3902 5.86696 62.4624 6.04614 62.4805 6.13803C62.6249 6.48721 62.8053 6.88693 63.0219 7.33718C63.2385 7.78744 63.5002 8.28823 63.807 8.83957C63.9875 9.07848 64.1544 9.3955 64.3078 9.79062C64.4612 10.1857 64.6011 10.5855 64.7274 10.9898C64.8537 11.3941 64.962 11.7616 65.0523 12.0924C65.1425 12.4232 65.2237 12.6438 65.2959 12.754C65.2959 12.8827 65.3365 13.0802 65.4177 13.3467C65.4989 13.6132 65.5801 13.8935 65.6614 14.1875C65.7426 14.4816 65.8193 14.7572 65.8915 15.0145C65.9637 15.2718 65.9998 15.4556 65.9998 15.5658C65.9998 15.6577 65.9817 15.7772 65.9456 15.9242ZM61.2081 8.9774C61.0637 8.53633 60.9329 8.15959 60.8156 7.84717C60.6983 7.53475 60.5629 7.22232 60.4095 6.9099C60.2561 6.59748 60.0802 6.2437 59.8816 5.84858C59.6831 5.45346 59.4304 4.94348 59.1236 4.31863C58.7085 5.0905 58.4108 5.98182 58.2303 6.9926C57.8513 7.74609 57.5806 8.54552 57.4181 9.3909C57.9776 9.2255 58.4288 9.1428 58.7717 9.1428C58.898 9.1428 58.9883 9.15199 59.0424 9.17037C59.3492 9.09686 59.7192 9.0601 60.1523 9.0601C60.5855 9.0601 60.9374 9.03254 61.2081 8.9774Z" fill="#2B475C"/>
</g>
</g>
<defs>
<clipPath id="clip0_345_575">
<rect width="66" height="16.4573" fill="white" transform="translate(0 0.54248)"/>
</clipPath>
</defs>
</svg>
