<svg width="88" height="90" viewBox="0 0 88 90" fill="none" xmlns="http://www.w3.org/2000/svg">
<g clip-path="url(#clip0_80_485)">
<g clip-path="url(#clip1_80_485)">
<path d="M43.9821 0C28.4546 0 15.8779 12.7127 15.8779 28.4083C15.8779 44.1039 28.4546 56.8166 43.9821 56.8166C47.0033 56.8166 50.0245 56.3194 52.9052 55.3607C57.2965 51.7031 59.861 46.341 59.8962 40.4818V31.3912C59.4395 23.2948 51.7108 18.1813 45.4927 14.0976C43.8065 12.9968 42.2256 11.9315 40.8555 10.8662L40.5745 15.6601C40.5745 15.9442 40.434 16.4058 39.8368 16.6899C38.818 17.1515 35.3401 18.927 32.8458 21.9809C30.6326 24.6797 29.649 26.7748 29.8246 28.3018C29.9652 29.7222 31.1245 30.894 33.0566 32.4565C34.0051 33.2022 35.0591 33.0602 36.8156 32.7406C39.1693 32.3144 42.4013 31.6752 46.2305 34.6226L44.8604 36.4336C41.8392 34.1255 39.4855 34.5516 37.2371 34.9777C35.3752 35.3328 33.4782 35.6879 31.6514 34.2675C29.649 32.6695 27.8222 31.0361 27.5412 28.5858C27.2953 26.3487 28.4194 23.7919 31.0542 20.5605C33.4782 17.5776 36.6048 15.7311 38.291 14.8788L38.8883 6.03676L40.6448 7.70575C42.1202 9.12616 44.3686 10.5821 46.7574 12.1801C53.3971 16.5478 61.6878 22.0164 62.1796 31.3201V40.9079C62.0742 45.3112 60.669 49.4659 58.245 52.946C66.5358 48.01 72.1215 38.8839 72.1215 28.4438C72.0864 12.7127 59.5097 0 43.9821 0ZM40.7502 24.8573C40.0124 25.603 38.7829 25.603 38.01 24.8573C37.2371 24.1115 37.2723 22.8687 38.01 22.0874C38.7477 21.3417 39.9773 21.3417 40.7502 22.0874C41.523 22.8332 41.4879 24.1115 40.7502 24.8573Z" fill="#5E8A75"/>
</g>
<g clip-path="url(#clip2_80_485)">
<path d="M15.1961 84.4902C15.1961 84.6362 15.2081 84.8186 15.2322 85.0375C15.2562 85.2564 15.2803 85.4875 15.3043 85.7307C15.3284 85.974 15.3525 86.199 15.3765 86.4057C15.4006 86.6125 15.4126 86.7645 15.4126 86.8618C15.4126 87.9077 14.9434 88.4307 14.0049 88.4307C13.2349 88.4307 12.6935 88.1753 12.3806 87.6645L12.0558 85.0375V84.7456C12.0558 84.5754 12.0438 84.3565 12.0197 84.0889C11.9956 83.8213 11.9655 83.5538 11.9295 83.2862C11.8934 83.0187 11.8633 82.7754 11.8392 82.5565C11.8152 82.3376 11.8031 82.1795 11.8031 82.0822C11.8272 81.9119 11.8452 81.7478 11.8573 81.5896C11.8693 81.4315 11.8753 81.2674 11.8753 81.0971C11.8753 80.8295 11.8633 80.5802 11.8392 80.3491C11.8152 80.1181 11.7791 79.8809 11.7309 79.6377C11.5384 79.6863 11.1293 79.7532 10.5037 79.8384C9.87804 79.9235 9.10801 79.9661 8.1936 79.9661C7.78452 79.9661 7.40552 79.9539 7.0566 79.9296C6.70768 79.9052 6.38884 79.8688 6.10008 79.8201C5.81132 79.6742 4.88488 79.6012 3.32075 79.6012C3.27263 80.1606 3.23653 80.6775 3.21247 81.1518C3.18841 81.6261 3.17637 82.0579 3.17637 82.4471C3.17637 83.2497 3.23653 83.8578 3.35685 84.2713C3.4531 85.4632 3.53131 86.3631 3.59147 86.9712C3.65163 87.5793 3.69374 88.0172 3.7178 88.2847C3.74186 88.5523 3.7539 88.7104 3.7539 88.759C3.7539 88.8077 3.7539 88.8685 3.7539 88.9414C3.7539 89.6468 3.27263 89.9995 2.31009 89.9995C1.9732 89.9995 1.67842 89.9326 1.42576 89.7989C1.17309 89.6651 0.962538 89.434 0.794094 89.1056C0.62565 88.7773 0.493301 88.3212 0.397047 87.7374C0.300793 87.1537 0.240634 86.424 0.216571 85.5483C0.0721901 84.9402 0 84.1375 0 83.1403C0 82.8241 0.00601584 82.5322 0.0180476 82.2646C0.0300793 81.9971 0.0360951 81.766 0.0360951 81.5714C0.0360951 81.3768 0.0300793 81.2126 0.0180476 81.0789C0.00601584 80.9451 0 80.8295 0 80.7322C0 80.7809 0 80.6228 0 80.2579C0 79.8931 0.0180475 79.4613 0.0541427 78.9627C0.0902378 78.4641 0.132349 77.9654 0.180476 77.4668C0.228603 76.9682 0.300793 76.5972 0.397047 76.354C0.397047 76.3054 0.391031 76.2506 0.378999 76.1898C0.366968 76.129 0.360952 76.0621 0.360952 75.9892C0.360952 75.454 0.385015 74.9797 0.433142 74.5662C0.481269 74.1527 0.535411 73.7514 0.59557 73.3622C0.655729 72.973 0.727919 72.5656 0.812141 72.1399C0.896363 71.7143 0.974569 71.2096 1.04676 70.6258C1.16708 69.7988 1.31146 69.1907 1.4799 68.8015C1.64835 68.4124 2.03336 68.2178 2.63495 68.2178C2.94777 68.2178 3.27864 68.3272 3.62756 68.5461C3.97648 68.7651 4.15094 69.0813 4.15094 69.4948C4.15094 69.7137 4.14493 69.9995 4.1329 70.3522C4.12086 70.7049 4.09078 71.1548 4.04266 71.7021C3.99453 72.2494 3.93437 72.9122 3.86218 73.6906C3.78999 74.4689 3.69374 75.3932 3.57342 76.4635C3.88625 76.5851 4.31939 76.6459 4.87285 76.6459C5.06535 76.6459 5.22778 76.6398 5.36013 76.6276C5.49248 76.6155 5.61881 76.6094 5.73913 76.6094C6.07602 76.6094 6.31064 76.6398 6.44299 76.7006C6.57534 76.7614 6.79792 76.7918 7.11075 76.7918C7.76046 76.7918 8.25376 76.7736 8.59065 76.7371C8.92754 76.7006 9.09598 76.6945 9.09598 76.7189H9.63741C10.1187 76.7189 10.5699 76.7006 10.991 76.6641C11.4121 76.6276 11.6226 76.4756 11.6226 76.2081C11.6226 75.5513 11.5144 74.6514 11.2978 73.5081V72.8514C11.2978 72.5109 11.2858 72.1764 11.2617 71.8481C11.2376 71.5197 11.1895 71.2217 11.1173 70.9542C11.1173 69.9812 11.7189 69.4948 12.9221 69.4948C13.4755 69.4948 13.8666 69.7806 14.0952 70.3522C14.3238 70.9238 14.4802 71.5987 14.5644 72.3771C14.6486 73.1555 14.6967 73.9521 14.7088 74.7669C14.7208 75.5817 14.799 76.2324 14.9434 76.7189C14.9434 77.3513 14.9614 78.0992 14.9975 78.9627C15.0336 79.8262 15.0998 80.8295 15.1961 81.9727C15.172 82.0944 15.16 82.2403 15.16 82.4106C15.16 82.5808 15.16 82.7633 15.16 82.9578C15.16 83.1768 15.16 83.4139 15.16 83.6693C15.16 83.9247 15.172 84.1984 15.1961 84.4902ZM41.0041 78.5431L40.9319 81.0971C40.6191 82.3619 39.7287 83.8213 38.2609 85.4753C38.0684 85.5483 37.8217 85.6943 37.5209 85.9132C37.2201 86.1321 36.8351 86.3571 36.3659 86.5881C35.8966 86.8192 35.3251 87.0199 34.6514 87.1901C33.9776 87.3604 33.1835 87.4455 32.2691 87.4455C30.4403 87.4455 28.9122 86.953 27.685 85.9679C26.4578 84.9828 25.5072 83.4322 24.8335 81.316C24.8094 81.1457 24.7974 80.9755 24.7974 80.8052C24.7974 80.6349 24.7974 80.4525 24.7974 80.2579C24.7974 78.7499 24.9538 77.4182 25.2666 76.2628C25.5794 75.1074 26.0005 74.1041 26.5299 73.2527C27.0593 72.4014 27.6669 71.6839 28.3527 71.1001C29.0386 70.5163 29.7544 70.042 30.5004 69.6772C31.7276 69.3367 32.9308 69.1664 34.1099 69.1664C34.9521 69.1664 35.7823 69.3853 36.6005 69.8231C37.4187 70.261 38.1466 70.8812 38.7843 71.6839C39.4219 72.4866 39.9393 73.4656 40.3363 74.6209C40.7334 75.7763 40.956 77.0837 41.0041 78.5431ZM37.6112 80.9876C37.7796 79.9904 37.8638 79.212 37.8638 78.6526C37.8638 77.7283 37.7315 76.877 37.4668 76.0986C37.2021 75.3203 36.8893 74.6453 36.5283 74.0737C36.1674 73.5021 35.7884 73.0521 35.3913 72.7237C34.9943 72.3953 34.6634 72.2312 34.3987 72.2312C33.1233 72.2312 32.0826 72.517 31.2765 73.0886C30.4703 73.6602 29.8387 74.3473 29.3815 75.15C28.9243 75.9527 28.6114 76.7918 28.443 77.6675C28.2745 78.5431 28.1903 79.285 28.1903 79.8931C28.1903 80.4525 28.2806 80.9937 28.461 81.5167C28.6415 82.0396 28.9062 82.5018 29.2551 82.9031C29.604 83.3045 30.0191 83.6267 30.5004 83.87C30.9817 84.1132 31.5351 84.2348 32.1608 84.2348C33.6287 84.2348 34.7837 83.9612 35.6259 83.4139C36.4681 82.8666 37.1299 82.0579 37.6112 80.9876ZM64.2494 83.3227C64.1772 83.6146 64.0027 83.9673 63.726 84.3808C63.4493 84.7943 63.1064 85.2139 62.6973 85.6395C62.2882 86.0652 61.8491 86.4483 61.3798 86.7888C60.9106 87.1293 60.4594 87.3726 60.0262 87.5185C58.775 88.078 57.3672 88.3577 55.8031 88.3577C55.2978 88.3577 54.8586 88.3455 54.4856 88.3212C54.1127 88.2969 53.7457 88.2239 53.3847 88.1023C53.0238 87.9807 52.6628 87.7861 52.3019 87.5185C51.9409 87.251 51.5319 86.8618 51.0747 86.351C50.5693 85.8159 50.1723 85.2868 49.8835 84.7639C49.5947 84.2409 49.3782 83.7362 49.2338 83.2497C49.0894 82.7633 48.9932 82.295 48.945 81.845C48.8969 81.3951 48.8728 80.9876 48.8728 80.6228C48.8728 79.8201 48.9691 78.8715 49.1616 77.7769C49.3541 76.6824 49.8715 75.3446 50.7137 73.7635C51.0265 73.1798 51.2672 72.7176 51.4356 72.3771C51.604 72.0366 51.7003 71.8055 51.7244 71.6839L53.9623 70.2974C54.7323 69.8353 55.4662 69.4644 56.1641 69.1846C56.8619 68.9049 57.6319 68.7651 58.4742 68.7651C58.7148 68.7651 59.0757 68.7651 59.557 68.7651C60.0383 68.7651 60.5135 68.8198 60.9828 68.9292C61.452 69.0387 61.8671 69.2333 62.2281 69.513C62.589 69.7927 62.7695 70.2001 62.7695 70.7353C62.7695 71.6352 62.2401 72.1582 61.1813 72.3041C61.2054 72.3041 61.1332 72.292 60.9647 72.2676C60.7963 72.2433 60.5677 72.219 60.2789 72.1947C59.9902 72.1704 59.6653 72.146 59.3044 72.1217C58.9434 72.0974 58.5824 72.0852 58.2215 72.0852C57.5958 72.0852 56.9642 72.2616 56.3265 72.6143C55.6888 72.9669 54.9128 73.569 53.9984 74.4203C53.5171 75.4419 53.1622 76.2385 52.9336 76.8101C52.705 77.3817 52.5906 77.7648 52.5906 77.9594C52.326 78.4458 52.1936 79.1634 52.1936 80.112C52.1936 81.8633 52.5064 83.122 53.1321 83.8882C53.7577 84.6544 54.612 85.0375 55.6948 85.0375C56.3927 85.0375 57.4755 84.8429 58.9434 84.4537C59.8337 83.9186 60.6038 83.0673 61.2535 81.8998C61.6626 81.4863 62.0837 81.2795 62.5168 81.2795C62.974 81.2795 63.3831 81.462 63.7441 81.8268C64.105 82.1917 64.2855 82.6052 64.2855 83.0673C64.2855 83.116 64.2795 83.1585 64.2674 83.195C64.2554 83.2315 64.2494 83.2741 64.2494 83.3227ZM87.9278 88.5766C87.8316 89.0387 87.3864 89.2698 86.5923 89.2698C85.9426 89.2698 85.4733 89.1239 85.1846 88.832C85.0643 88.4185 84.8958 87.9138 84.6792 87.3178C84.4627 86.7219 84.21 86.0348 83.9212 85.2564C83.7769 84.3078 83.6385 83.6389 83.5062 83.2497C83.3738 82.8606 83.2114 82.5687 83.0189 82.3741C82.6579 82.3984 82.1406 82.441 81.4668 82.5018C80.793 82.5626 80.0831 82.6356 79.3372 82.7207C78.5912 82.8058 77.8934 82.9153 77.2436 83.0491C76.5939 83.1828 76.1247 83.3227 75.8359 83.4686C75.7156 84.0767 75.5712 84.7456 75.4028 85.4753C75.2343 86.205 75.0298 86.9834 74.7892 87.8104C74.717 88.0536 74.5485 88.23 74.2838 88.3394C74.0191 88.4489 73.6943 88.5036 73.3093 88.5036C72.9243 88.5036 72.5934 88.4367 72.3167 88.3029C72.0399 88.1692 71.9016 87.9685 71.9016 87.7009C71.9016 87.2145 72.1903 85.7672 72.7678 83.3592C72.7438 83.2619 72.7318 83.116 72.7318 82.9214C72.7318 82.6052 72.7739 82.2099 72.8581 81.7356C72.9423 81.2613 73.0325 80.8052 73.1288 80.3674C73.2251 79.9296 73.3153 79.5526 73.3995 79.2363C73.4837 78.9201 73.5258 78.7499 73.5258 78.7256L74.6809 75.4784C74.729 75.1621 74.8553 74.7365 75.0599 74.2014C75.2644 73.6663 75.487 73.119 75.7276 72.5595C75.9683 72.0001 76.1969 71.471 76.4135 70.9724C76.63 70.4738 76.7744 70.0907 76.8466 69.8231C77.0632 69.0204 77.6407 68.6191 78.5792 68.6191C79.3492 68.6191 79.8425 68.911 80.0591 69.4948C80.0591 69.4948 80.1313 69.6285 80.2756 69.8961C80.42 70.1637 80.6125 70.5042 80.8532 70.9177C81.0938 71.3312 81.3525 71.7873 81.6292 72.2859C81.9059 72.7845 82.1646 73.2588 82.4053 73.7088C82.6459 74.1588 82.8504 74.5601 83.0189 74.9128C83.1873 75.2655 83.2836 75.5027 83.3076 75.6243C83.5001 76.0864 83.7408 76.6155 84.0295 77.2114C84.3183 77.8073 84.6672 78.4702 85.0763 79.1999C85.3169 79.5161 85.5395 79.9356 85.7441 80.4586C85.9486 80.9816 86.1351 81.5106 86.3035 82.0457C86.472 82.5808 86.6164 83.0673 86.7367 83.5051C86.857 83.943 86.9653 84.2348 87.0615 84.3808C87.0615 84.551 87.1157 84.8125 87.224 85.1652C87.3322 85.5179 87.4405 85.8888 87.5488 86.278C87.6571 86.6672 87.7594 87.032 87.8556 87.3726C87.9519 87.7131 88 87.9563 88 88.1023C88 88.2239 87.9759 88.382 87.9278 88.5766ZM81.6112 79.3823C81.4187 78.7985 81.2442 78.2999 81.0878 77.8864C80.9314 77.4729 80.7509 77.0594 80.5464 76.6459C80.3418 76.2324 80.1072 75.7642 79.8425 75.2412C79.5778 74.7182 79.2409 74.0433 78.8318 73.2163C78.2784 74.2379 77.8813 75.4175 77.6407 76.7553C77.1354 77.7526 76.7744 78.8107 76.5578 79.9296C77.3038 79.7107 77.9054 79.6012 78.3626 79.6012C78.531 79.6012 78.6514 79.6134 78.7235 79.6377C79.1326 79.5404 79.6259 79.4917 80.2034 79.4917C80.781 79.4917 81.2502 79.4553 81.6112 79.3823Z" fill="#2B475C"/>
</g>
</g>
<defs>
<clipPath id="clip0_80_485">
<rect width="88" height="90" fill="white"/>
</clipPath>
<clipPath id="clip1_80_485">
<rect width="56.2436" height="56.8166" fill="white" transform="translate(15.8779)"/>
</clipPath>
<clipPath id="clip2_80_485">
<rect width="88" height="21.7817" fill="white" transform="translate(0 68.2183)"/>
</clipPath>
</defs>
</svg>
